Coordinates
version=1
nRows=14
nColumns=24
inDegrees=yes

Units are S.I. units (second, meters, Newtons, ...)
Angles are in degrees.

endheader
time	pelvis_tilt	pelvis_list	pelvis_rotation	pelvis_tx	pelvis_ty	pelvis_tz	hip_flexion_r	hip_adduction_r	hip_rotation_r	knee_angle_r	ankle_angle_r	subtalar_angle_r	mtp_angle_r	hip_flexion_l	hip_adduction_l	hip_rotation_l	knee_angle_l	ankle_angle_l	subtalar_angle_l	mtp_angle_l	lumbar_extension	lumbar_bending	lumbar_rotation
      4.10500000	      5.00740994	     -6.77490249	      1.00765589	      0.38612588	      1.01787616	      0.05226557	      1.29925829	      8.65861827	     -0.56932803	     -7.90519549	      3.87949866	     -7.41508135	     10.88947986	     17.81484408	    -10.02856200	     -5.29566980	    -68.28924278	      2.88526052	     -8.11138060	     31.18945654	    -15.07814288	     10.16324704	      1.34177056
      4.11000000	      5.09300288	     -6.66314959	      0.88751426	      0.39081656	      1.01848575	      0.05263046	      0.76972393	      8.55911351	     -0.47322340	     -7.68408229	      4.08874603	     -7.23656741	     10.55869311	     18.26461752	     -9.86654255	     -5.39496766	    -67.86962605	      3.51145086	     -7.49801150	     29.89385411	    -15.23748590	      9.98685757	      1.47932221
      4.11500000	      5.12272515	     -6.55201908	      0.77823706	      0.39547774	      1.01896890	      0.05299192	      0.31435945	      8.46045538	     -0.38598846	     -7.48028620	      4.26792365	     -7.15894634	     10.56680735	     18.76642165	     -9.70045579	     -5.47309046	    -67.38218932	      3.93330367	     -7.08917364	     29.96988932	    -15.33152494	      9.81034046	      1.58630036
      4.12000000	      5.24966714	     -6.45803705	      0.64225778	      0.40017198	      1.01958928	      0.05337854	     -0.26080310	      8.37378125	     -0.26557783	     -7.25579863	      4.45702902	     -6.96135582	     10.55780536	     19.11716752	     -9.57345000	     -5.59047640	    -66.81197195	      4.33079069	     -6.66551441	     29.97441964	    -15.53728003	      9.64673079	      1.76026836
      4.12500000	      5.35421844	     -6.33701088	      0.51131464	      0.40492239	      1.02016841	      0.05374913	     -0.81088447	      8.25435880	     -0.19460661	     -7.03699876	      4.65066114	     -6.76108118	     10.52960727	     19.45636699	     -9.41483993	     -5.71850070	    -66.16217686	      4.69612593	     -6.35442165	     29.91505993	    -15.70658982	      9.45136639	      1.89446764
      4.13000000	      5.44929564	     -6.21899392	      0.37760959	      0.40965739	      1.02069282	      0.05409513	     -1.34184632	      8.13229123	     -0.13561593	     -6.83151670	      4.85811472	     -6.54124101	     10.48534871	     19.78575410	     -9.25616314	     -5.83774611	    -65.45603404	      5.02593870	     -6.08746174	     29.81111392	    -15.86638969	      9.26166115	      2.03490782
      4.13500000	      5.55069956	     -6.09218869	      0.24327393	      0.41440557	      1.02122087	      0.05442931	     -1.87522385	      7.99660893	     -0.08195298	     -6.63583380	      5.07040130	     -6.31249709	     10.43044685	     20.07551757	     -9.08604867	     -5.95290922	    -64.67568435	      5.31787819	     -5.86284200	     29.68611436	    -16.02813388	      9.06089843	      2.18625833
      4.14000000	      5.67388043	     -5.96316277	      0.10129589	      0.41923152	      1.02175685	      0.05478109	     -2.44116121	      7.85552128	     -0.06108182	     -6.42904909	      5.28562135	     -6.03603164	     10.33374508	     20.29944396	     -8.92909393	     -6.10275512	    -63.82383003	      5.60377519	     -5.70292930	     29.48972280	    -16.20578976	      8.85285222	      2.31365275
      4.14500000	      5.78493838	     -5.82989086	     -0.04396645	      0.42404774	      1.02224182	      0.05511711	     -2.98422939	      7.70539532	     -0.04625477	     -6.23845890	      5.51266997	     -5.76013704	     10.20652499	     20.51112213	     -8.76403661	     -6.23834790	    -62.91319897	      5.85801434	     -5.56207377	     29.26353356	    -16.36873730	      8.64047622	      2.45195425
      4.15000000	      5.88863309	     -5.70005220	     -0.19598090	      0.42884542	      1.02268563	      0.05543528	     -3.51155529	      7.55356003	     -0.01131845	     -6.06029148	      5.76081503	     -5.47325407	     10.08379201	     20.70842009	     -8.59901776	     -6.35889354	    -61.94778145	      6.06211410	     -5.44365539	     29.05087040	    -16.52357778	      8.43251344	      2.61271946
      4.15500000	      6.00315014	     -5.57723562	     -0.34517588	      0.43370953	      1.02311444	      0.05576487	     -4.05586532	      7.40825917	     -0.02356944	     -5.87436826	      5.98905441	     -5.17162738	      9.89162427	     20.85803920	     -8.45216003	     -6.49083565	    -60.92104067	      6.28132697	     -5.35560651	     28.77100266	    -16.68169645	      8.22913579	      2.74410431
      4.16000000	      6.11832480	     -5.43933618	     -0.48105366	      0.43856107	      1.02351740	      0.05602658	     -4.58970353	      7.24168019	     -0.06622386	     -5.70632250	      6.23119253	     -4.86273413	      9.55162899	     20.98200567	     -8.27062127	     -6.58115747	    -59.83151927	      6.48740604	     -5.25322465	     28.36089998	    -16.83744524	      8.01669915	      2.88151688
      4.16500000	      6.17538776	     -5.32347622	     -0.68376313	      0.44336061	      1.02379167	      0.05639794	     -5.04535021	      7.09437847	      0.03315662	     -5.56729935	      6.52081040	     -4.58844090	      9.42311874	     21.14543164	     -8.14716402	     -6.72222631	    -58.70592320	      6.59526343	     -5.17674835	     28.18942608	    -16.93907268	      7.81119810	      3.08148224
      4.17000000	      6.30911833	     -5.19288478	     -0.83365779	      0.44827727	      1.02415347	      0.05669265	     -5.60083255	      6.93121661	     -0.02445339	     -5.39760060	      6.74680841	     -4.26552768	      9.11969897	     21.18247047	     -7.99333473	     -6.82994165	    -57.49867583	      6.76171895	     -5.10437935	     27.88267646	    -17.10712176	      7.59863530	      3.21093597
